PathFileType	4	(X/Y/Z)	Patient4_TMGait_0pt3_03_left_22.trc.trc
DataRate	CameraRate	NumFrames	NumMarkers	Units	OrigDataRate	OrigDataStartFrame	OrigNumFrames
57.142857142857	57.142857142857	4	33	mm	57.142857142857	36	       141
Frame#	Time	Sacral			L.Shoulder			Chest			R.Shoulder			Neck			R.ASIS			L.ASIS			R.Thigh.Superior			R.Thigh.Lateral			R.Thigh.Inferior			R.Patella			L.Thigh.Superior			L.Thigh.Lateral			L.Thigh.Inferior			L.Patella			L.Shank.Superior			L.Shank.Lateral			L.Shank.Inferior			R.Shank.Superior			R.Shank.Lateral			R.Shank.Inferior			R.Heel			R.Midfoot.Superior			R.Midfoot.Lateral			R.Toe			L.Heel			L.Midfoot.Lateral			L.Midfoot.Superior			L.Toe			L.Elbow			L.Wrist			R.Elbow			R.Wrist			
		X1	Y1	Z1	X2	Y2	Z2	X3	Y3	Z3	X4	Y4	Z4	X5	Y5	Z5	X6	Y6	Z6	X7	Y7	Z7	X8	Y8	Z8	X9	Y9	Z9	X10	Y10	Z10	X11	Y11	Z11	X12	Y12	Z12	X13	Y13	Z13	X14	Y14	Z14	X15	Y15	Z15	X16	Y16	Z16	X17	Y17	Z17	X18	Y18	Z18	X19	Y19	Z19	X20	Y20	Z20	X21	Y21	Z21	X22	Y22	Z22	X23	Y23	Z23	X24	Y24	Z24	X25	Y25	Z25	X26	Y26	Z26	X27	Y27	Z27	X28	Y28	Z28	X29	Y29	Z29	X30	Y30	Z30	X31	Y31	Z31	X32	Y32	Z32	X33	Y33	Z33	

36	38.962500000000	737.700534527627	1014.529019765384	504.189833290050	913.188947832857	1421.406314377645	288.955921498857	1032.313584484329	1355.659405060014	439.742363083007	973.854523634208	1440.145601307180	617.993780507488	909.062583961206	1490.209990074742	443.746667431938	970.365599561741	931.973600779236	599.536759021748	934.187545349423	957.930281548167	328.030655585117	968.131714502574	718.624341898410	573.240944703836	873.933575934544	624.958246873197	646.576271966865	930.829125607341	557.107481036640	563.644538591559	912.097532554945	465.233270871454	576.122884750308	997.265882026559	760.119873631712	360.928978400997	924.117620946102	637.190548604706	294.099902586307	1016.571337000609	568.640487834353	357.171836565141	1023.609918390084	499.292194672922	362.623994218486	1002.561906248113	426.581004557982	351.246952417420	923.229352352893	307.992875196642	292.940559141897	981.425604506998	197.471160888384	360.817306148969	855.226369634408	389.209480666272	590.621857295317	759.673173757055	316.460691855243	664.380127654742	764.073950971834	210.798285575569	606.621506861597	584.198425588122	81.490969690981	594.374706893908	763.406438032160	103.456020908375	623.950935899414	667.395104392418	59.041146277873	665.701758126449	871.155535233927	36.544398457060	650.208384437012	860.268064485977	38.537904785443	391.920531952163	938.507447275754	35.923421863841	315.131101971673	1020.108116867839	97.139943184669	346.793550665347	1149.371876087830	46.829373592135	324.561547189605	815.782436583006	1076.353968837665	198.812507857078	841.152373616132	815.961204626008	214.155381106466	1116.718875689350	1131.816604831744	733.780599421218	1360.794128721140	1193.352371793594	701.757053193675	
37	38.980000000000	738.688803018542	1015.337239892022	499.445576836656	914.708402263069	1422.378875462558	284.873827207999	1032.769383343074	1357.061087268194	436.671052956757	972.758293290166	1441.574409301772	614.387969174566	908.988016586623	1491.319070884746	439.778148333741	970.687037486876	933.431477315516	596.874821992512	936.567701090361	958.503153706777	325.067323788707	968.503201575653	719.977201974627	571.709676300969	873.587322034927	626.735172114515	644.820873874242	931.111850835123	558.334293235856	562.833363308106	912.046021676269	466.133615521994	575.840270350832	998.450467100272	759.725715051576	358.728958284872	924.783722360397	637.041080023741	292.128578625220	1016.422267787892	568.014694686370	355.900703958657	1023.112994528852	498.526363150530	361.700141130365	1001.305677790607	425.952318727518	350.522006222205	921.197520347738	307.912948092614	292.277410642799	977.788032041117	197.049385842900	360.702853644989	854.290029509937	390.681292648662	590.270086158743	757.605502444246	319.175513209606	663.610830582794	761.602763317146	212.976236350837	606.633206998489	580.532551486929	85.940394532210	594.198028763967	760.071220416075	104.220421209066	624.189951175445	663.171278911156	61.594442122322	665.551434558425	866.111643529040	36.421252942811	650.105870817502	855.258327180014	38.607771505009	391.873549393613	933.531221959847	36.004525091268	315.175173312914	1015.231900397759	97.001315561955	346.952388912147	1144.504788829629	46.312985353737	324.638281740646	824.556285108361	1075.855971924405	191.453879281505	856.525518611293	816.003189618340	204.018391556189	1109.011784041023	1128.642553096314	730.102196770816	1357.366454776150	1174.811312740200	701.272957743291	
38	38.997500000000	739.589509415095	1016.025476874800	494.788488643525	916.164158658949	1423.322384047773	280.951772214237	1033.112974800581	1358.410053998598	433.774268231229	971.524442495493	1442.935372295697	610.946874859332	908.840152358227	1492.372502582061	435.977964168630	970.944109296325	934.856294955794	594.240222342845	938.814186329630	959.061751633510	322.146347068773	969.002443474920	721.365121039474	570.194933228822	873.444562910971	628.467212637887	643.057522367542	931.690846856372	559.550558064514	562.066809844620	912.322639233926	466.978344846549	575.622832186932	999.570933380195	759.283852786100	356.483252370593	925.348982248947	636.819063878181	290.242726285125	1016.231677490563	567.362334713361	354.633588488682	1022.563366895298	497.712602104057	360.774668912709	999.984504915962	425.285610605773	349.805105846381	919.058809802721	307.810325312893	291.692244239696	974.111794311543	196.633873796898	360.595806493261	853.633401579374	392.110660094856	589.989982309453	755.767435708488	321.902876654688	662.875277030864	759.361912970885	215.143270460781	606.726314601044	577.023035770643	90.446315716595	594.098628702860	756.859475427685	104.911891357064	624.524624061380	659.035121098322	64.119960612122	665.460629585209	861.059370197790	36.352962705241	650.013030774644	850.214185746468	38.704260812284	391.859703313806	928.507843925980	36.096712569321	315.244850985468	1010.318680148214	96.883867237099	347.101385142652	1139.584121888766	45.778845395555	324.690152796762	834.002672594274	1075.407408343941	184.200809097372	872.463704277160	816.278696762018	194.190256957019	1100.847720602216	1125.575448424919	726.822267879787	1352.623706534146	1154.880494021479	701.064643253209	
39	39.015000000000	740.405805975962	1016.596133159562	490.218469379215	917.543697147432	1424.230513824591	277.179486466575	1033.350398346687	1359.695989571877	431.021882352907	970.177144075835	1444.197422937696	607.656961973194	908.636331401914	1493.355977141626	432.330159357785	971.145181780861	936.235695443600	591.599511459294	940.923583803995	959.594649613182	319.246924270615	969.622100913155	722.755945757929	568.667725128547	873.506647999594	630.123572722954	641.276582824065	932.553314204888	560.726753103255	561.315487565372	912.928457102326	467.733538768572	575.457933443757	1000.653326328550	758.821365037945	354.209588387248	925.874801017334	636.534460511768	288.431264967694	1016.062597355521	566.699799989887	353.364483084909	1022.024450071958	496.860849685677	359.842249480109	998.657157805643	424.578254565746	349.093863623057	916.861466330821	307.693219627941	291.162908561226	970.413152464545	196.222082796705	360.497843214582	853.263281131668	393.465850720531	589.769625922300	754.174464396004	324.620492327251	662.186487277534	757.357928454540	217.280432937886	606.905897038335	573.670006454084	94.992523293818	594.095653173649	753.765644893633	105.514660772190	624.947397530375	654.989549486308	66.609549606443	665.443170987390	856.006272523400	36.328326686546	649.936628322866	845.124574771245	38.827463448287	391.873141755064	923.427666184659	36.198010928893	315.334745814452	1005.361786226743	96.784777023603	347.240400834797	1134.600694252018	45.230434380402	324.718706692498	844.098527745604	1075.019802928607	177.130768327410	888.927975048404	816.805413550328	184.787076283508	1092.239794116492	1122.614358036540	723.946652241481	1346.283325420083	1133.692923340366	701.111219236480	
